<mxfile host="app.diagrams.net" agent="Mozilla/5.0 (Windows NT 10.0; Win64; x64) AppleWebKit/537.36 (KHTML, like Gecko) Chrome/129.0.0.0 Safari/537.36 Edg/129.0.0.0" version="24.7.16">
  <diagram name="Page-1" id="USfhUaTbzPlI9kwWeMp2">
    <mxGraphModel dx="1160" dy="1555" grid="1" gridSize="10" guides="1" tooltips="1" connect="1" arrows="1" fold="1" page="1" pageScale="1" pageWidth="850" pageHeight="1100" math="0" shadow="0">
      <root>
        <mxCell id="0" />
        <mxCell id="1" parent="0" />
        <mxCell id="7a5-cRTvwAwfPGt7wtdR-1" value="1234" style="rounded=1;whiteSpace=wrap;html=1;" vertex="1" parent="1">
          <mxGeometry x="500" y="100" width="160" height="70" as="geometry" />
        </mxCell>
        <mxCell id="7a5-cRTvwAwfPGt7wtdR-2" value="0x22335467" style="text;html=1;align=center;verticalAlign=middle;whiteSpace=wrap;rounded=0;" vertex="1" parent="1">
          <mxGeometry x="500" y="70" width="120" height="30" as="geometry" />
        </mxCell>
        <mxCell id="7a5-cRTvwAwfPGt7wtdR-3" value="a" style="rounded=0;whiteSpace=wrap;html=1;" vertex="1" parent="1">
          <mxGeometry x="30" y="110" width="100" height="30" as="geometry" />
        </mxCell>
        <mxCell id="7a5-cRTvwAwfPGt7wtdR-5" style="rounded=0;orthogonalLoop=1;jettySize=auto;html=1;exitX=1;exitY=0.75;exitDx=0;exitDy=0;entryX=0;entryY=0.5;entryDx=0;entryDy=0;" edge="1" parent="1" source="7a5-cRTvwAwfPGt7wtdR-4" target="7a5-cRTvwAwfPGt7wtdR-1">
          <mxGeometry relative="1" as="geometry" />
        </mxCell>
        <mxCell id="7a5-cRTvwAwfPGt7wtdR-4" value="0x22335467" style="rounded=0;whiteSpace=wrap;html=1;" vertex="1" parent="1">
          <mxGeometry x="140" y="110" width="100" height="30" as="geometry" />
        </mxCell>
        <mxCell id="7a5-cRTvwAwfPGt7wtdR-6" value="1234" style="rounded=1;whiteSpace=wrap;html=1;" vertex="1" parent="1">
          <mxGeometry x="490" y="230" width="160" height="70" as="geometry" />
        </mxCell>
        <mxCell id="7a5-cRTvwAwfPGt7wtdR-7" value="0x32335467" style="text;html=1;align=center;verticalAlign=middle;whiteSpace=wrap;rounded=0;" vertex="1" parent="1">
          <mxGeometry x="490" y="200" width="120" height="30" as="geometry" />
        </mxCell>
        <mxCell id="7a5-cRTvwAwfPGt7wtdR-8" value="b" style="rounded=0;whiteSpace=wrap;html=1;" vertex="1" parent="1">
          <mxGeometry x="30" y="150" width="100" height="30" as="geometry" />
        </mxCell>
        <mxCell id="7a5-cRTvwAwfPGt7wtdR-10" style="rounded=0;orthogonalLoop=1;jettySize=auto;html=1;exitX=1;exitY=0.5;exitDx=0;exitDy=0;entryX=0;entryY=0.5;entryDx=0;entryDy=0;" edge="1" parent="1" source="7a5-cRTvwAwfPGt7wtdR-9" target="7a5-cRTvwAwfPGt7wtdR-6">
          <mxGeometry relative="1" as="geometry" />
        </mxCell>
        <mxCell id="7a5-cRTvwAwfPGt7wtdR-9" value="0x32335467" style="rounded=0;whiteSpace=wrap;html=1;" vertex="1" parent="1">
          <mxGeometry x="140" y="150" width="100" height="30" as="geometry" />
        </mxCell>
        <mxCell id="7a5-cRTvwAwfPGt7wtdR-11" value="0x25375100" style="rounded=0;whiteSpace=wrap;html=1;" vertex="1" parent="1">
          <mxGeometry x="140" y="70" width="100" height="30" as="geometry" />
        </mxCell>
        <mxCell id="7a5-cRTvwAwfPGt7wtdR-12" value="c" style="rounded=0;whiteSpace=wrap;html=1;" vertex="1" parent="1">
          <mxGeometry x="30" y="70" width="100" height="30" as="geometry" />
        </mxCell>
        <mxCell id="7a5-cRTvwAwfPGt7wtdR-13" style="rounded=0;orthogonalLoop=1;jettySize=auto;html=1;exitX=1;exitY=0.5;exitDx=0;exitDy=0;entryX=0;entryY=0.5;entryDx=0;entryDy=0;" edge="1" parent="1" source="7a5-cRTvwAwfPGt7wtdR-11" target="7a5-cRTvwAwfPGt7wtdR-16">
          <mxGeometry relative="1" as="geometry" />
        </mxCell>
        <mxCell id="7a5-cRTvwAwfPGt7wtdR-14" value="1000" style="rounded=1;whiteSpace=wrap;html=1;" vertex="1" parent="1">
          <mxGeometry x="740" y="40" width="160" height="70" as="geometry" />
        </mxCell>
        <mxCell id="7a5-cRTvwAwfPGt7wtdR-15" value="0x22335100" style="text;html=1;align=center;verticalAlign=middle;whiteSpace=wrap;rounded=0;" vertex="1" parent="1">
          <mxGeometry x="740" y="10" width="120" height="30" as="geometry" />
        </mxCell>
        <mxCell id="7a5-cRTvwAwfPGt7wtdR-16" value="2234" style="rounded=1;whiteSpace=wrap;html=1;" vertex="1" parent="1">
          <mxGeometry x="530" y="-60" width="160" height="70" as="geometry" />
        </mxCell>
        <mxCell id="7a5-cRTvwAwfPGt7wtdR-17" value="0x25375100" style="text;html=1;align=center;verticalAlign=middle;whiteSpace=wrap;rounded=0;" vertex="1" parent="1">
          <mxGeometry x="530" y="-90" width="120" height="30" as="geometry" />
        </mxCell>
      </root>
    </mxGraphModel>
  </diagram>
</mxfile>
